<svg width="60" height="61" viewBox="0 0 60 61" fill="none" xmlns="http://www.w3.org/2000/svg">
<g clip-path="url(#clip0_18_19)">
<path d="M47.5 0.40686H12.5C5.5975 0.40686 0 6.00436 0 12.9069V47.9069C0 54.8094 5.5975 60.4069 12.5 60.4069H47.5C54.405 60.4069 60 54.8094 60 47.9069V12.9069C60 6.00436 54.405 0.40686 47.5 0.40686ZM36.335 49.3819C35.3225 49.5769 35 48.9544 35 48.4219V42.9344C35 41.0669 34.345 39.8519 33.625 39.2319C38.08 38.7369 42.76 37.0444 42.76 29.3644C42.76 27.1794 41.98 25.3944 40.7025 23.9969C40.9075 23.4919 41.5925 21.4569 40.505 18.7044C40.505 18.7044 38.8275 18.1669 35.01 20.7544C33.41 20.3044 31.7 20.0869 30 20.0769C28.3 20.0844 26.59 20.3044 24.9925 20.7494C21.1725 18.1619 19.4925 18.6994 19.4925 18.6994C18.4075 21.4544 19.0925 23.4869 19.3 23.9944C18.02 25.3944 17.24 27.1769 17.24 29.3619C17.24 37.0219 21.9075 38.7394 26.3525 39.2469C25.78 39.7469 25.2625 40.6269 25.0825 41.9219C23.94 42.4319 21.0475 43.3144 19.2625 40.2569C19.2625 40.2569 18.205 38.3369 16.195 38.1944C16.195 38.1944 14.245 38.1694 16.0575 39.4119C16.0575 39.4119 17.37 40.0269 18.28 42.3369C18.28 42.3369 19.4375 45.9069 25 44.6969V48.4194C25 48.9469 24.6775 49.5669 23.68 49.3819C15.73 46.7394 10 39.2419 10 30.4069C10 19.3594 18.955 10.4069 30 10.4069C41.045 10.4069 50 19.3594 50 30.4069C50 39.2394 44.2775 46.7344 36.335 49.3819Z" fill="white" fill-opacity="0.7"/>
</g>
<defs>
<clipPath id="clip0_18_19">
<rect width="60" height="60" fill="white" transform="translate(0 0.40686)"/>
</clipPath>
</defs>
</svg>
