<svg width="60" height="61" viewBox="0 0 60 61" fill="none" xmlns="http://www.w3.org/2000/svg">
<path d="M47.5 0.40686H12.5C5.5975 0.40686 0 6.00436 0 12.9069V47.9069C0 54.8094 5.5975 60.4069 12.5 60.4069H47.5C54.405 60.4069 60 54.8094 60 47.9069V12.9069C60 6.00436 54.405 0.40686 47.5 0.40686ZM20 47.9069H12.5V20.4069H20V47.9069ZM16.25 17.2369C13.835 17.2369 11.875 15.2619 11.875 12.8269C11.875 10.3919 13.835 8.41686 16.25 8.41686C18.665 8.41686 20.625 10.3919 20.625 12.8269C20.625 15.2619 18.6675 17.2369 16.25 17.2369ZM50 47.9069H42.5V33.8969C42.5 25.4769 32.5 26.1144 32.5 33.8969V47.9069H25V20.4069H32.5V24.8194C35.99 18.3544 50 17.8769 50 31.0094V47.9069Z" fill="white" fill-opacity="0.7"/>
</svg>
