<svg width="33" height="31" viewBox="0 0 33 31" fill="none" xmlns="http://www.w3.org/2000/svg">
<g clip-path="url(#clip0_16_29)">
<path fill-rule="evenodd" clip-rule="evenodd" d="M32.4267 0.308533H3.53571V32.741H23.7594L32.4267 24.6329V0.308533ZM23.7594 24.6329H30.0576L23.7594 30.5585V24.6329ZM19.4257 25.9842H7.86935V27.3356H19.4257V25.9842ZM19.4257 21.9302H7.86935V23.2815H19.4257V21.9302ZM28.093 19.2275V17.8761H7.86935V19.2275H28.093ZM17.896 12.5139C16.2391 12.1558 14.6977 11.8423 15.4446 10.5234C17.7168 6.50988 16.0469 4.36259 13.6475 4.36259C11.2005 4.36259 9.57247 6.59232 11.8505 10.5234C12.619 11.8504 11.0199 12.1639 9.39913 12.5139C7.91991 12.8342 7.86502 13.5207 7.86935 14.7234L7.87079 15.1734H19.4228L19.4243 14.7369C19.4301 13.5261 19.3809 12.8356 17.896 12.5139ZM28.093 13.822H22.3148V15.1734H28.093V13.822ZM28.093 11.1193V9.76799H22.3148V11.1193H28.093ZM28.093 5.71394H22.3148V7.06529H28.093V5.71394Z" fill="white"/>
</g>
<defs>
<clipPath id="clip0_16_29">
<rect width="32.069" height="30" fill="white" transform="translate(0.863281 0.308533)"/>
</clipPath>
</defs>
</svg>
